<?xml version="1.0" encoding="UTF-8" standalone="no"?>
<svg
   width="47"
   height="27"
   version="1.1"
   id="svg10"
   sodipodi:docname="toggle-on.svg"
   inkscape:version="1.2.2 (b0a8486541, 2022-12-01)"
   xmlns:inkscape="http://www.inkscape.org/namespaces/inkscape"
   xmlns:sodipodi="http://sodipodi.sourceforge.net/DTD/sodipodi-0.dtd"
   xmlns="http://www.w3.org/2000/svg"
   xmlns:svg="http://www.w3.org/2000/svg">
  <defs
     id="defs14" />
  <sodipodi:namedview
     id="namedview12"
     pagecolor="#ffffff"
     bordercolor="#000000"
     borderopacity="0.25"
     inkscape:showpageshadow="2"
     inkscape:pageopacity="0.0"
     inkscape:pagecheckerboard="0"
     inkscape:deskcolor="#d1d1d1"
     showgrid="true"
     inkscape:zoom="64"
     inkscape:cx="5.8984375"
     inkscape:cy="15.289062"
     inkscape:window-width="1920"
     inkscape:window-height="1021"
     inkscape:window-x="0"
     inkscape:window-y="27"
     inkscape:window-maximized="1"
     inkscape:current-layer="g8">
    <inkscape:grid
       type="xygrid"
       id="grid851" />
  </sodipodi:namedview>
  <g
     transform="translate(0,-291.18)"
     id="g8">
    <rect
       width="45"
       height="25.000004"
       y="291.67999"
       fill="#ff0001"
       rx="12.327819"
       ry="12.511968"
       style="fill:#3584e4;fill-opacity:1;stroke:#3584e4;stroke-width:0.999992;stroke-dasharray:none;stroke-opacity:1;marker:none;opacity:1"
       id="rect2"
       x="0.5" />
    <rect
       width="20"
       height="20"
       x="23"
       y="295.17999"
       fill="#f8f7f7"
       rx="10"
       ry="10"
       style="fill:#000000;fill-opacity:0.2;stroke:none;stroke-width:1;marker:none"
       id="rect4" />
    <rect
       width="20"
       height="20"
       x="23"
       y="294.17999"
       fill="#f8f7f7"
       rx="10"
       ry="10"
       style="fill:#e4e4e4;fill-opacity:1;stroke:none;stroke-width:1;marker:none"
       id="rect6" />
    <path
       style="fill:#00aa00;stroke-width:0.0985664;fill-opacity:1"
       d="M 10.694455,25.766951 C 6.2532411,24.972723 2.5153914,21.874583 0.89352345,17.643386 -0.10954503,15.026539 -0.18671522,11.654424 0.69470408,8.9555525 2.1840201,4.3953248 5.8510516,1.194286 10.694455,0.22653285 11.517635,0.06205434 12.401819,0.0492832 22.965971,0.0492832 c 12.496388,0 12.03549,-0.01973148 14.009804,0.5997731 3.875046,1.2159208 6.992017,4.3048487 8.303154,8.2284505 0.480188,1.4369722 0.603731,2.2827712 0.603731,4.1332582 0,1.295705 -0.04465,1.933384 -0.179441,2.562726 -0.687968,3.212145 -2.461388,5.99575 -5.040595,7.911846 -1.112595,0.826549 -2.904738,1.680436 -4.340905,2.068277 l -1.182797,0.319417 -11.827968,0.01747 c -9.882523,0.01459 -11.957665,-0.0057 -12.616499,-0.123547 z m 24.801167,-2.047585 c 4.054829,-1.03777 6.996403,-4.435055 7.479911,-8.638707 C 43.352986,11.799065 42.612667,8.91008 40.827095,6.6966929 38.010691,3.2054908 33.186932,2.0131866 29.009586,3.7757208 27.851757,4.2642398 26.889483,4.9324326 25.869745,5.9559926 24.424861,7.4062913 23.57985,8.9913912 23.15978,11.039437 c -0.185879,0.90625 -0.206244,1.25557 -0.163763,2.809142 0.05702,2.085126 0.234791,2.945712 0.897505,4.344715 0.57884,1.221944 1.132255,2.017711 2.02195,2.907407 1.437871,1.437871 3.286042,2.41722 5.182228,2.746072 0.325269,0.05641 0.702285,0.122343 0.837814,0.146518 0.642065,0.114524 2.644276,-0.03953 3.560108,-0.273925 z"
       id="path3274"
       transform="translate(0,291.18)" />
    <path
       style="fill:#00aa00;fill-opacity:1;stroke-width:0.0231227"
       d="m 17.914325,25.995715 c 2.801028,-0.0032 7.384529,-0.0032 10.185557,0 2.801029,0.0032 0.509278,0.0059 -5.092778,0.0059 -5.602057,0 -7.893807,-0.0026 -5.092779,-0.0059 z"
       id="path4797"
       transform="translate(0,291.18)" />
    <path
       style="mix-blend-mode:darken;fill:#00aa00;fill-opacity:1;stroke-width:0.0231227"
       d="M 12.220356,25.974725 C 11.556908,25.935279 10.953836,25.862758 10.405223,25.756451 6.4603693,24.992041 3.0949144,22.39141 1.328621,18.742573 1.098324,18.266821 0.84764827,17.677872 0.85985883,17.64124 c 0.00415,-0.01245 0.0684696,0.12584 0.14293127,0.307315 0.5135441,1.251583 1.2637379,2.470331 2.1773986,3.537352 0.2862151,0.334257 1.0773991,1.118856 1.4212321,1.409403 1.6765676,1.416738 3.613791,2.36564 5.7459952,2.814537 0.863653,0.181826 0.428572,0.176035 13.226194,0.176035 11.516681,0 11.584489,5.25e-4 10.319406,0.07983 -0.261461,0.01639 -3.809281,0.02288 -10.971729,0.02006 -5.821924,-0.0023 -10.637343,-0.0073 -10.700931,-0.01104 z"
       id="path4799"
       transform="translate(0,291.18)" />
    <path
       style="fill:#00aa00;fill-opacity:1"
       d="m 36.00342,25.65472 c 0.0045,-0.0042 0.145021,-0.04475 0.312277,-0.09017 1.303281,-0.353918 2.841899,-1.055606 3.988007,-1.818736 0.955527,-0.636232 1.966577,-1.570457 2.735159,-2.527324 1.316862,-1.639467 2.214662,-3.530754 2.666621,-5.617451 0.06331,-0.292301 0.116359,-0.674285 0.148989,-1.072799 0.03515,-0.429259 0.03511,-2.506639 -5.9e-5,-2.952735 -0.05267,-0.668181 -0.136834,-1.192448 -0.279295,-1.7397547 -0.08576,-0.329487 -0.08401,-0.3202932 -0.06125,-0.3202932 0.0089,0 0.02638,0.041937 0.03877,0.093193 0.180913,0.7486889 0.266692,1.1970529 0.334998,1.7510399 0.07553,0.612598 0.09003,0.878263 0.0899,1.648038 -1.37e-4,0.832023 -0.02533,1.209502 -0.127143,1.905507 -0.484192,3.309886 -2.172803,6.25209 -4.779879,8.328373 -1.10774,0.882207 -2.407564,1.593909 -3.758938,2.05816 -0.550934,0.189268 -1.368717,0.411163 -1.308155,0.354951 z"
       id="path4803"
       transform="translate(0,291.18)" />
    <path
       style="mix-blend-mode:darken;fill:#00aa00;fill-opacity:1;stroke-width:0.0196195"
       d="m 32.40703,25.883351 c 0.04615,-0.0041 0.116776,-0.0041 0.156956,1.29e-4 0.04018,0.0042 0.0024,0.0076 -0.0839,0.0075 -0.08632,-7.1e-5 -0.1192,-0.0035 -0.07305,-0.0077 z"
       id="path4805"
       transform="translate(0,291.18)" />
    <path
       style="mix-blend-mode:darken;fill:#00aa00;fill-opacity:1;stroke-width:0.0196195"
       d="m 32.391797,23.974467 c -0.356656,-0.02347 -0.754749,-0.07011 -1.098693,-0.128744 -4.159238,-0.709008 -7.437443,-3.991327 -8.139906,-8.150122 -0.06671,-0.394947 -0.09217,-0.634048 -0.119808,-1.125393 -0.01763,-0.31338 -0.02301,-0.884871 -0.0065,-0.689411 0.01988,0.235245 0.09511,0.764332 0.146459,1.030024 0.329738,1.706311 1.057142,3.225263 2.193817,4.581089 0.211893,0.252745 0.73584,0.784398 1.012903,1.0278 2.397971,2.106634 5.636726,2.93774 8.787872,2.25508 1.56157,-0.338296 3.035535,-1.064937 4.296671,-2.118189 0.285783,-0.238675 0.843192,-0.790668 1.106713,-1.095958 0.565472,-0.655105 0.997048,-1.305978 1.391978,-2.099287 0.546257,-1.097283 0.869445,-2.222591 1.003166,-3.492916 0.01309,-0.124319 0.01569,-0.04763 0.01033,0.304747 -0.02179,1.433406 -0.360485,2.814487 -1.020039,4.159334 -0.967702,1.973171 -2.562463,3.563926 -4.552196,4.540761 -1.085441,0.532884 -2.221841,0.852864 -3.453792,0.972495 -0.383389,0.03723 -1.200608,0.05227 -1.55899,0.02869 z"
       id="path4809"
       transform="translate(0,291.18)" />
    <path
       style="fill:#00aa00;fill-opacity:1;stroke-width:0.0078238"
       d="m 34.913692,23.822859 c 0.537651,-0.11212 0.830617,-0.188735 1.243984,-0.325321 0.467481,-0.154467 0.843945,-0.309428 1.29875,-0.534595 1.239914,-0.613861 2.332285,-1.474379 3.222995,-2.538922 0.73431,-0.877619 1.310644,-1.872436 1.706409,-2.945453 0.03567,-0.09671 0.06865,-0.177096 0.0733,-0.178644 0.009,-0.003 -0.02178,0.08657 -0.103107,0.299706 -0.204167,0.535035 -0.470977,1.083346 -0.769818,1.582022 -0.768775,1.282855 -1.823172,2.382904 -3.065738,3.198475 -0.349363,0.229308 -0.633637,0.39282 -1.013738,0.583092 -0.820545,0.410751 -1.721494,0.718439 -2.495472,0.852244 -0.150784,0.02607 -0.207833,0.03039 -0.09756,0.0074 z"
       id="path4811"
       transform="translate(0,291.18)" />
    <path
       style="fill:#00aa00;fill-opacity:1;stroke-width:0.0078238"
       d="m 32.204589,24.019071 c -0.151902,-0.01063 -0.208276,-0.019 -0.659617,-0.09803 -0.570593,-0.09991 -0.619801,-0.10903 -0.802406,-0.148732 -0.964194,-0.209635 -1.924397,-0.589969 -2.807699,-1.112121 -0.02151,-0.01272 -0.04023,-0.0289 -0.04159,-0.03597 -0.0017,-0.0087 0.0366,0.0095 0.117355,0.05578 0.945069,0.541259 1.956615,0.919703 3.022457,1.130773 0.645889,0.127906 1.276039,0.189424 1.987244,0.194003 0.171558,0.0011 0.206856,0.0028 0.144741,0.007 -0.134916,0.0091 -0.857003,0.01456 -0.960485,0.0073 z"
       id="path4813"
       transform="translate(0,291.18)" />
    <path
       style="fill:#00aa00;fill-opacity:1;stroke-width:0.00390625"
       d="m 23.103468,11.334961 c 0.0011,-0.0048 0.0072,-0.03604 0.01352,-0.06934 0.160502,-0.847405 0.380378,-1.5896964 0.675364,-2.2800025 0.406032,-0.9501639 0.950688,-1.7952613 1.680002,-2.6067163 0.139773,-0.1555149 0.256305,-0.2773437 0.265286,-0.2773437 0.0065,0 -0.0046,0.012889 -0.08956,0.1041729 -0.736872,0.7919971 -1.359766,1.7411541 -1.804284,2.7493427 -0.317157,0.719327 -0.559978,1.5198419 -0.691379,2.2792969 -0.0087,0.05049 -0.01675,0.09575 -0.01782,0.100586 -0.0016,0.0073 -0.0045,0.0088 -0.01756,0.0088 -0.01421,0 -0.01544,-7.97e-4 -0.01357,-0.0088 z"
       id="path6301"
       transform="translate(0,291.18)" />
    <path
       style="fill:#00aa00;fill-opacity:1;stroke-width:0.00390625"
       d="m 42.748738,10.745117 c -0.0039,-0.01772 -0.02267,-0.09551 -0.04177,-0.172851 C 42.312109,8.973032 41.526173,7.4997941 40.412612,6.2714975 40.193853,6.0301988 39.905694,5.7433531 39.693501,5.5556641 l -0.02319,-0.020508 h 0.02594 0.02594 l 0.05004,0.045498 c 0.237308,0.2157733 0.485172,0.4649217 0.70096,0.7045918 0.533665,0.5927304 0.986285,1.2369659 1.362535,1.9393633 0.05108,0.095361 0.191662,0.3766447 0.236225,0.4726562 0.235572,0.5075424 0.425437,1.0226774 0.580214,1.5742186 0.0239,0.08517 0.11544,0.44513 0.126904,0.499024 0.0011,0.0054 -0.0012,0.0068 -0.01091,0.0068 -0.01231,0 -0.01239,-1.33e-4 -0.01941,-0.03223 z"
       id="path6303"
       transform="translate(0,291.18)" />
    <path
       style="fill:#00aa00;fill-opacity:1;stroke-width:0.00390625"
       d="m 42.72012,16.37627 c 0.0011,-0.0039 0.01174,-0.04932 0.02354,-0.100879 0.149206,-0.652021 0.22963,-1.272792 0.252784,-1.951172 0.0048,-0.141279 0.0023,-0.657355 -0.0038,-0.763672 -0.0018,-0.03233 -0.0014,-0.08503 0.001,-0.128906 0.0023,-0.04144 0.0041,-0.231195 0.0042,-0.429688 4.6e-5,-0.288241 -0.0012,-0.379109 -0.0068,-0.480469 -0.02033,-0.373043 -0.04687,-0.650218 -0.09313,-0.972656 -0.01549,-0.107941 -0.0543,-0.345001 -0.06185,-0.377703 -0.0065,-0.02833 -0.0057,-0.03116 0.0084,-0.02977 l 0.0125,0.0012 0.01268,0.06836 c 0.0937,0.504959 0.155611,1.037216 0.182872,1.572265 0.02054,0.403138 0.02128,0.89151 0.002,1.296875 -0.02766,0.580768 -0.08761,1.146911 -0.171993,1.624256 -0.03495,0.197698 -0.09851,0.502258 -0.133853,0.641369 -0.0084,0.033 -0.0096,0.03524 -0.01981,0.03643 -0.009,10e-4 -0.01051,0 -0.0088,-0.0059 z"
       id="path6305"
       transform="translate(0,291.18)" />
    <path
       style="fill:#00aa00;fill-opacity:1;stroke-width:0.00390625"
       d="m 42.710937,16.377278 c 0,-0.0038 0.0034,-0.02031 0.0076,-0.03678 0.01458,-0.05733 0.05444,-0.237621 0.07398,-0.334636 0.127694,-0.634036 0.187682,-1.25223 0.187891,-1.936293 2.8e-5,-0.09005 -0.0015,-0.155972 -0.0035,-0.15726 -0.0051,-0.0032 -0.0067,0.0068 -0.01993,0.124803 -0.01522,0.135582 -0.03156,0.262277 -0.05089,0.394532 -0.02087,0.142763 -0.04775,0.305408 -0.04957,0.299935 -8.18e-4,-0.0025 0.0065,-0.05424 0.01622,-0.11509 0.0529,-0.330419 0.09628,-0.723061 0.110478,-0.999747 0.0056,-0.108868 0.009,-0.02395 0.01147,0.287558 0.0025,0.308422 -3.2e-5,0.442989 -0.01237,0.664062 -0.03072,0.550138 -0.106089,1.097261 -0.224214,1.627565 -0.03516,0.157834 -0.04714,0.203918 -0.04714,0.181354 z"
       id="path6307"
       transform="translate(0,291.18)" />
    <path
       style="fill:#00aa00;fill-opacity:1;stroke-width:0.00390625"
       d="m 39.660245,21.479035 c 0.0053,-0.0051 0.05095,-0.04683 0.101392,-0.09277 0.582815,-0.53078 1.123131,-1.160808 1.569093,-1.82962 0.41814,-0.627087 0.772699,-1.318651 1.034395,-2.017579 0.04712,-0.125843 0.08532,-0.220929 0.08688,-0.216252 0.0029,0.0086 -0.07654,0.224702 -0.150869,0.410689 -0.438325,1.096831 -1.067666,2.111234 -1.849639,2.981345 -0.166693,0.185481 -0.466889,0.491266 -0.627277,0.638955 -0.147493,0.135815 -0.145903,0.134482 -0.160445,0.134482 h -0.01321 z"
       id="path6309"
       transform="translate(0,291.18)" />
    <path
       style="fill:#00aa00;fill-opacity:1;stroke-width:0.00390625"
       d="m 39.666016,21.4738 c 0.31954,-0.291827 0.505921,-0.47658 0.737446,-0.731005 0.85053,-0.934655 1.517937,-2.023685 1.958605,-3.19592 0.05112,-0.135978 0.08837,-0.228778 0.08994,-0.224065 0.0018,0.0054 -0.03858,0.120454 -0.08487,0.241643 -0.450108,1.178424 -1.08514,2.223072 -1.913887,3.148409 -0.20506,0.22896 -0.479324,0.505193 -0.714969,0.720103 -0.05383,0.0491 -0.06206,0.05521 -0.07422,0.05516 l -0.01367,-5.8e-5 0.01563,-0.01427 z"
       id="path6311"
       transform="translate(0,291.18)" />
    <path
       style="fill:#00aa00;fill-opacity:1;stroke-width:0.00390625"
       d=""
       id="path6313"
       transform="translate(0,291.18)" />
    <path
       style="fill:#00aa00;fill-opacity:1;stroke-width:0.00390625"
       d=""
       id="path6315"
       transform="translate(0,291.18)" />
    <path
       style="fill:#00aa00;fill-opacity:1;stroke-width:0.00390625"
       d="m 36.167969,23.485206 c 0,-0.0017 0.01802,-0.0089 0.04004,-0.01611 0.119988,-0.03906 0.336771,-0.118932 0.499023,-0.183866 0.987281,-0.395112 1.90284,-0.94131 2.714593,-1.619452 0.475987,-0.397641 0.927682,-0.854383 1.319009,-1.333749 0.06955,-0.0852 0.190537,-0.239463 0.232023,-0.295845 0.01611,-0.0219 0.03161,-0.03988 0.03443,-0.03995 0.0074,-1.99e-4 -0.122788,0.169626 -0.247009,0.322128 -0.911532,1.119063 -2.053779,2.027833 -3.34406,2.660529 -0.374079,0.183432 -0.728895,0.331191 -1.130548,0.470804 -0.06106,0.02122 -0.112476,0.03859 -0.114258,0.03859 -0.0018,0 -0.0032,-0.0014 -0.0032,-0.0031 z"
       id="path6317"
       transform="translate(0,291.18)" />
    <path
       style="fill:#00aa00;fill-opacity:1;stroke-width:0.00390625"
       d=""
       id="path6319"
       transform="translate(0,291.18)" />
    <path
       style="fill:#00aa00;fill-opacity:1;stroke-width:0.00390625"
       d="m 36.167969,24.381183 v -0.857098 l 0.05566,-0.01846 c 0.857231,-0.28426 1.735389,-0.724202 2.493164,-1.249033 0.870497,-0.602902 1.622228,-1.322958 2.269218,-2.173603 l 0.06609,-0.0869 h 1.424979 1.424979 l -0.05028,0.07763 c -0.596531,0.921057 -1.274173,1.732207 -2.06283,2.469244 -0.409672,0.382857 -0.890099,0.776184 -1.302846,1.066642 -0.82228,0.578655 -2.01376,1.190969 -3.112813,1.599709 l -0.07787,0.02896 h -0.563727 -0.563727 z"
       id="path6321"
       transform="translate(0,291.18)" />
    <path
       style="fill:#00aa00;fill-opacity:1;stroke-width:0.00390625"
       d="m 36.167969,24.381184 v -0.857098 l 0.06152,-0.02042 c 0.64211,-0.213089 1.336095,-0.53331 1.939859,-0.895095 0.706184,-0.423157 1.332468,-0.911532 1.914905,-1.49324 0.342564,-0.342134 0.638311,-0.682224 0.924901,-1.063576 l 0.04183,-0.05566 h 1.42559 1.425589 l -0.02201,0.03418 c -0.427961,0.664544 -0.874763,1.245126 -1.389584,1.80565 -0.243355,0.264958 -0.56072,0.58081 -0.824683,0.820752 -0.378303,0.343875 -0.804502,0.688486 -1.17203,0.947665 -0.815579,0.575141 -1.976764,1.174238 -3.086468,1.592419 l -0.110186,0.04152 h -0.564619 -0.564618 z"
       id="path6323"
       transform="translate(0,291.18)" />
    <path
       style="fill:#00aa00;fill-opacity:1;stroke-width:0.00390625"
       d="m 36.167969,24.381182 v -0.857099 l 0.04395,-0.0145 c 0.149192,-0.04924 0.365809,-0.128934 0.536624,-0.197417 1.703475,-0.682955 3.162699,-1.80075 4.266491,-3.268217 l 0.03599,-0.04785 h 1.425612 1.425613 l -0.01432,0.02246 c -0.455109,0.713611 -0.983803,1.387697 -1.56786,1.999023 -0.509191,0.532965 -1.058438,1.01875 -1.648187,1.457748 -0.838163,0.623912 -2.065089,1.270008 -3.280184,1.727336 l -0.09464,0.03562 h -0.564543 -0.564542 z"
       id="path6325"
       transform="translate(0,291.18)" />
    <path
       style="fill:#00aa00;fill-opacity:1;stroke-width:0.00390625"
       d=""
       id="path6327"
       transform="translate(0,291.18)" />
    <path
       style="fill:#00aa00;fill-opacity:1;stroke-width:0.00390625"
       d="m 36.167969,24.38134 v -0.856941 l 0.07715,-0.02621 c 1.329302,-0.45162 2.542115,-1.17277 3.567307,-2.121153 0.08447,-0.07815 0.307591,-0.293949 0.337799,-0.326727 0.01065,-0.01156 0.04493,-0.0474 0.07617,-0.07964 0.257438,-0.265706 0.524891,-0.579378 0.775177,-0.909141 l 0.04966,-0.06543 h 1.425605 1.425605 l -0.0093,0.01465 c -0.231568,0.365705 -0.535188,0.790205 -0.816521,1.141602 -0.326631,0.407976 -0.631825,0.747152 -1.008881,1.121216 -0.351047,0.34826 -0.670487,0.632819 -1.050186,0.935511 -0.272396,0.217151 -0.466196,0.359821 -0.710937,0.523371 -0.582721,0.389405 -1.297877,0.777877 -2.056641,1.117163 -0.284227,0.127095 -0.624754,0.266956 -0.885595,0.363731 l -0.06724,0.02494 h -0.5646 -0.5646 z"
       id="path6329"
       transform="translate(0,291.18)" />
    <path
       style="fill:#00aa00;fill-opacity:1;stroke-width:0.00390625"
       d=""
       id="path6331"
       transform="translate(0,291.18)" />
    <path
       style="fill:#00aa00;fill-opacity:1;stroke-width:0.00390625"
       d="m 27.472656,4.6309241 v -0.021881 l 0.09082,-0.059774 c 0.534336,-0.3516757 1.095259,-0.6393765 1.719726,-0.8820587 1.008702,-0.3920046 2.067567,-0.6212546 3.144531,-0.6808079 0.331232,-0.018316 0.756172,-0.019087 1.083985,-0.00197 1.07032,0.0559 2.124054,0.279352 3.117187,0.6610216 l 0.08398,0.032276 0.0012,0.012695 c 6.73e-4,0.00698 -2.07e-4,0.012692 -0.002,0.012687 -0.0017,-3.9e-6 -0.02603,-0.00895 -0.05396,-0.019878 -0.981439,-0.3840257 -2.026599,-0.6101602 -3.09375,-0.669375 -0.215939,-0.011982 -0.363683,-0.014855 -0.652344,-0.012687 -0.266535,0.002 -0.377452,0.00556 -0.574218,0.018418 -1.587126,0.1037143 -3.105871,0.5738032 -4.464844,1.3819784 -0.08092,0.048121 -0.25289,0.1552961 -0.330078,0.2057075 -0.0333,0.021749 -0.06274,0.040889 -0.06543,0.042534 -0.0037,0.00225 -0.0049,-0.0024 -0.0049,-0.018891 z"
       id="path6335"
       transform="translate(0,291.18)" />
    <path
       style="fill:#00aa00;fill-opacity:1;stroke-width:0.00390625"
       d="M 44.541562,7.1103516 C 44.467526,6.9614324 44.33927,6.7236883 44.23126,6.5351562 43.314186,4.9343852 42.080594,3.5565842 40.595703,2.4745973 40.364264,2.3059557 40.043846,2.0908699 39.794922,1.9370601 c -0.0117,-0.00723 -0.01163,-0.00724 0.05347,-0.00731 l 0.06519,-6.58e-5 0.03637,0.022781 c 0.298228,0.1868115 0.645788,0.4279031 0.934806,0.6484449 0.362306,0.2764673 0.673318,0.5400171 1.021484,0.8656002 0.108294,0.1012698 0.429842,0.4216698 0.529655,0.5277638 0.87749,0.9327072 1.563945,1.908137 2.15169,3.05748 l 0.06142,0.1201172 h -0.03844 -0.03843 z"
       id="path6337"
       transform="translate(0,291.18)" />
    <path
       style="fill:#00aa00;fill-opacity:1;stroke-width:0.00390625"
       d="M 39.591797,5.4659939 C 38.782544,4.7543192 37.829562,4.163535 36.823242,3.7496781 l -0.108398,-0.04458 V 3.691975 c 0,-0.00893 0.0016,-0.012504 0.0049,-0.011185 0.845471,0.3355457 1.618919,0.7687012 2.34082,1.3109338 0.134657,0.1011435 0.261353,0.2016364 0.396484,0.3144835 0.08732,0.072917 0.261719,0.2243713 0.261719,0.2272808 0,9.178e-4 -0.01099,0.00157 -0.02441,0.00144 l -0.02441,-2.289e-4 -0.07813,-0.068705 z"
       id="path6339"
       transform="translate(0,291.18)" />
    <path
       style="fill:#00aa00;fill-opacity:1;stroke-width:0.00390625"
       d="M 39.707207,1.8836472 C 38.907441,1.397023 38.01642,0.98661359 37.128906,0.69606805 36.987113,0.64964902 36.524945,0.5046573 36.386588,0.46318711 35.949756,0.33225411 35.610994,0.26108121 35.167969,0.20715886 34.871061,0.17102107 34.453804,0.13902747 34.038086,0.12052399 l -0.108399,-0.004825 V 0.06954109 0.02338295 l 0.02637,0.002052 c 0.0145,0.0011286 0.06592,0.0047178 0.114257,0.007976 0.249836,0.01683945 0.531246,0.04523898 0.794922,0.08022253 1.573972,0.20882812 3.08745,0.70894268 4.476563,1.47923842 0.163219,0.090509 0.439887,0.2529288 0.539018,0.3164341 l 0.03121,0.019991 -0.06297,0.00117 -0.06297,0.00117 z"
       id="path6341"
       transform="translate(0,291.18)" />
    <path
       style="fill:#00aa00;fill-opacity:1;stroke-width:0.00390625"
       d="m 45.744248,10.452148 c -8.81e-4,-0.0027 -0.01154,-0.05322 -0.02368,-0.112304 -0.04748,-0.231039 -0.156916,-0.705565 -0.178036,-0.7719658 -0.01326,-0.041679 -0.02302,-0.056444 -0.03523,-0.053253 -0.0077,0.00201 -0.0082,0.00403 -0.0061,0.026201 0.0012,0.013213 0.01205,0.062502 0.02402,0.1095305 0.01198,0.047029 0.02121,0.087219 0.02051,0.089313 -6.98e-4,0.00209 -0.0054,-0.011865 -0.01038,-0.031018 -0.01486,-0.05675 -0.07291,-0.2588645 -0.100324,-0.349277 C 45.203573,8.59604 44.948026,7.9375956 44.636213,7.3011451 c -0.03411,-0.069624 -0.06202,-0.1271923 -0.06202,-0.1279297 0,-7.374e-4 0.01641,-0.00134 0.03647,-0.00134 h 0.03647 l 0.04386,0.089907 c 0.414228,0.8490621 0.75182,1.8065966 0.966773,2.7421236 0.03573,0.1555 0.09612,0.439214 0.09612,0.451571 0,0.0039 -0.0082,10e-4 -0.0097,-0.0033 z"
       id="path6343"
       transform="translate(0,291.18)" />
    <path
       style="fill:#00aa00;fill-opacity:1;stroke-width:0.00390625"
       d="m 45.866052,14.817383 c 0.05443,-0.383793 0.08389,-0.68313 0.09872,-1.00293 0.0214,-0.46148 0.01945,-1.320585 -0.0039,-1.722656 -0.0256,-0.440465 -0.106763,-1.068778 -0.20127,-1.558138 -0.01507,-0.07802 -0.01489,-0.07663 -0.0098,-0.07663 0.0053,0 0.0058,0.0024 0.02937,0.13086 0.134025,0.730635 0.207147,1.47744 0.216386,2.209961 0.0072,0.573039 -0.01503,1.073004 -0.07169,1.610351 -0.02627,0.249185 -0.06303,0.525391 -0.06992,0.525391 -0.0029,0 0.0012,-0.03877 0.01217,-0.116211 z"
       id="path6345"
       transform="translate(0,291.18)" />
    <path
       style="fill:#00aa00;fill-opacity:1;stroke-width:0.00390625"
       d="m 0.78515625,17.498821 c 0,-6.48e-4 -0.0164602,-0.04767 -0.0365781,-0.104492 C 0.49814211,16.686984 0.30178801,15.919482 0.17786433,15.163542 0.08182309,14.577687 0.02828334,14.021829 0.00766291,13.396484 0.00264309,13.244251 0.00268781,12.753774 0.00773521,12.603516 0.01322107,12.440204 0.0191672,12.302589 0.02178637,12.27832 l 0.0022133,-0.02051 h 0.03904987 0.03904988 l -0.0022885,0.03027 c -0.01691492,0.223758 -0.02235227,0.872814 -0.01003806,1.198242 0.02948299,0.779149 0.10761223,1.477259 0.2445426,2.185067 0.11578875,0.598525 0.28692871,1.229513 0.47388594,1.747204 0.0152549,0.04224 0.0277361,0.07784 0.0277361,0.0791 0,0.0013 -0.0114258,0.0023 -0.0253906,0.0023 -0.0139648,0 -0.0253906,-5.3e-4 -0.0253906,-0.0012 z"
       id="path6347"
       transform="translate(0,291.18)" />
    <path
       style="fill:#00aa00;fill-opacity:1;stroke-width:0.00390625"
       d="M 0.02512209,12.209961 C 0.06233356,11.547626 0.16311109,10.814601 0.3066642,10.162109 0.45312285,9.4964117 0.62969031,8.9061425 0.87542102,8.2607422 l 0.0249118,-0.06543 h 0.0326734 c 0.0295639,0 0.0324109,6.506e-4 0.0299158,0.00684 C 0.8743793,8.4216418 0.71621422,8.8727989 0.63528359,9.1367188 0.3728583,9.9925044 0.20004876,10.923497 0.12519512,11.884766 c -0.008539,0.109662 -0.023622,0.339683 -0.0236286,0.360351 l -4.02e-6,0.0127 H 0.06199809 0.02243368 Z"
       id="path6349"
       transform="translate(0,291.18)" />
    <path
       style="fill:#00aa00;fill-opacity:1;stroke-width:0.00390625"
       d="m 0.90234375,8.1935024 c 0,-0.00272 0.0620097,-0.1579132 0.0937045,-0.234518 C 1.3058561,7.2101914 1.6785426,6.5031538 2.1223338,5.8222656 2.4141473,5.3745498 2.7322508,4.9474907 3.085044,4.5298115 l 0.071372,-0.084499 h 0.037505 c 0.034985,0 0.037145,4.528e-4 0.032144,0.00674 -0.00295,0.00371 -0.031728,0.037546 -0.063955,0.075196 C 2.2617049,5.5791752 1.5466246,6.760347 1.0135952,8.0761719 l -0.0474717,0.1171875 -0.0318899,0.00113 c -0.0175394,6.24e-4 -0.0318899,1.779e-4 -0.0318899,-9.915e-4 z"
       id="path6351"
       transform="translate(0,291.18)" />
    <path
       style="fill:#00aa00;fill-opacity:1;stroke-width:0.00390625"
       d="m 3.1628918,4.4398336 c 0.00399,-0.007 0.1122338,-0.1305645 0.1872047,-0.2137022 C 3.621625,3.9250239 3.9537645,3.591353 4.25,3.3220788 4.8904761,2.7398945 5.5718182,2.2342257 6.3085937,1.7942612 7.3256676,1.1869171 8.410025,0.73034165 9.5626117,0.42413716 l 0.1114399,-0.0296059 0.1327007,3.523e-4 c 0.092234,2.4486e-4 0.1285317,0.001496 0.119029,0.004102 -0.00752,0.002062 -0.067285,0.0178963 -0.1328125,0.035187 C 8.6639121,0.73209571 7.5664539,1.175132 6.5742187,1.7335592 5.7354614,2.2056097 4.9613843,2.7625595 4.2578211,3.4002112 3.9382448,3.6898489 3.5779361,4.0543886 3.2989959,4.3702957 l -0.066238,0.075017 h -0.036495 c -0.030193,0 -0.035955,-9.461e-4 -0.033371,-0.00548 z"
       id="path6353"
       transform="translate(0,291.18)" />
    <path
       style="fill:#00aa00;fill-opacity:1;stroke-width:0.00390625"
       d="m 10.042969,0.33827078 v -0.0319674 l 0.04199,-0.008854 C 10.493257,0.21135558 10.778294,0.1613152 11.121565,0.11546542 11.638176,0.04646302 12.106538,0.01241225 12.656248,0.00389111 12.790319,0.00181287 14.275589,1.7859e-4 16.088865,1.14128e-4 L 19.285156,0 v 0.02296133 0.02296132 l -0.391601,0.002346 c -0.215381,0.0012903 -1.044629,0.0032598 -1.842774,0.0043767 -3.345548,0.0046816 -4.818926,0.0243814 -5.566406,0.0744257 -0.33922,0.022711 -0.553974,0.0500049 -0.826172,0.10500144 -0.175932,0.0355463 -0.450698,0.0966675 -0.571289,0.12708213 l -0.04395,0.0110836 z"
       id="path6355"
       transform="translate(0,291.18)" />
    <path
       style="fill:#00aa00;fill-opacity:1;stroke-width:0.00390625"
       d="M 19.285156,0.0234375 V 0 h 3.945313 3.945312 V 0.0234375 0.046875 h -3.945312 -3.945313 z"
       id="path6357"
       transform="translate(0,291.18)" />
    <path
       style="fill:#00aa00;fill-opacity:1;stroke-width:0.00390625"
       d="M 33.859375,0.11296135 C 33.758773,0.10826704 33.335245,0.09430475 33.160156,0.08991047 32.26848,0.06753162 31.124048,0.05609978 29.431641,0.05266597 28.873047,0.05153261 28.294287,0.04955414 28.145508,0.04826936 L 27.875,0.0459334 V 0.02278803 -3.5733816e-4 l 2.793945,0.001530778 c 1.996571,0.00109391 2.824603,0.00279753 2.901367,0.00596937 0.145631,0.00601734 0.271037,0.01185511 0.319336,0.01486539 l 0.04004,0.0024955 v 0.04634192 c 0,0.02548806 -0.0013,0.04606773 -0.0029,0.0457326 -0.0016,-3.3511e-4 -0.03193,-0.001963 -0.06738,-0.003617 z"
       id="path6359"
       transform="translate(0,291.18)" />
    <path
       style="fill:#00aa00;fill-opacity:1;stroke-width:0.00390625"
       d="M 2.8975485,21.243639 C 2.6412759,20.928588 2.3570534,20.537783 2.1223439,20.177734 1.5880107,19.358057 1.1514708,18.489357 0.81255135,17.571289 L 0.78623384,17.5 l 0.0258284,4.6e-5 0.0258284,4.6e-5 0.024875,0.06734 c 0.0270067,0.07311 0.12383264,0.31875 0.15665036,0.397415 0.1898969,0.455187 0.3964766,0.884409 0.6238261,1.296157 0.031218,0.05654 0.055888,0.103671 0.054822,0.104737 C 1.6925749,19.371227 1.506514,19.023426 1.385385,18.78125 1.2310507,18.472686 1.1426277,18.278962 1.0020498,17.941406 0.92552761,17.757661 0.87137782,17.640625 0.86288579,17.640625 c -0.0309297,0 0.18660401,0.521438 0.43429111,1.041016 0.4272397,0.896228 0.9679302,1.756258 1.5919794,2.532226 0.047316,0.05883 0.061681,0.0791 0.056067,0.0791 -0.00494,0 -0.021396,-0.01702 -0.047675,-0.04933 z"
       id="path6361"
       transform="translate(0,291.18)" />
    <path
       style="fill:#00aa00;fill-opacity:1;stroke-width:0.00390625"
       d="m 12.482422,25.993516 c -0.01504,-5.77e-4 -0.08008,-0.0029 -0.144531,-0.0053 C 10.899452,25.936616 9.4580242,25.632839 8.1171875,25.09873 6.8692548,24.601629 5.7109552,23.911276 4.6738281,23.04647 4.5407214,22.935479 4.5389876,22.933914 4.5489411,22.933709 c 0.00473,-9.7e-5 0.044854,0.03076 0.099609,0.07662 1.3163073,1.102368 2.8370683,1.92954 4.4549651,2.423144 0.9794308,0.298814 1.8825328,0.460328 2.9921878,0.535131 0.09345,0.0063 0.157733,0.0079 0.317383,0.0079 l 0.200195,5e-6 v 0.0098 0.0098 l -0.05176,-7.65e-4 c -0.02847,-4.21e-4 -0.06406,-0.0012 -0.0791,-0.0018 z"
       id="path6409"
       transform="translate(0,291.18)" />
    <path
       style="fill:#00aa00;fill-opacity:1;stroke-width:0.00390625"
       d="m 28.580078,25.995562 c -0.395312,-0.0017 -0.76709,-0.0037 -0.826172,-0.0043 -0.05908,-6.38e-4 0.232715,-0.0016 0.648438,-0.0021 3.229188,-0.0042 5.222078,-0.01166 5.443359,-0.02031 0.154636,-0.0061 0.502893,-0.0306 0.560237,-0.0395 0.05032,-0.0078 0.03878,-0.01434 -0.03384,-0.01919 -0.137555,-0.0092 -0.940405,-0.01931 -1.54104,-0.01944 -0.152709,-3.2e-5 -0.249024,-0.0015 -0.249024,-0.0037 0,-0.002 -0.0066,-0.0044 -0.01465,-0.0052 -0.0081,-8.43e-4 0.140918,-0.0018 0.331054,-0.0022 0.190137,-3.62e-4 0.727149,-0.0015 1.19336,-0.0025 l 0.847656,-0.0018 -0.0957,0.01336 c -0.19536,0.02728 -0.50858,0.0593 -0.744141,0.07608 -0.264289,0.01882 -0.454027,0.02671 -0.755859,0.03144 -0.276465,0.0043 -3.738447,0.0039 -4.763672,-5.29e-4 z"
       id="path6411"
       transform="translate(0,291.18)" />
    <path
       style="fill:#00aa00;fill-opacity:1;stroke-width:0.00390625"
       d="m 35.437826,25.795321 c 8.95e-4,-8.54e-4 0.06491,-0.01858 0.142252,-0.03939 0.276639,-0.07443 0.762093,-0.205686 0.782304,-0.211525 0.01132,-0.0033 0.02258,-0.0053 0.02501,-0.0045 0.0024,8.11e-4 -0.02001,0.0082 -0.04988,0.01639 C 36.066379,25.6308 36,25.650869 36,25.658371 c 0,0.02371 0.254958,-0.03522 0.662109,-0.153019 0.552446,-0.159841 1.018351,-0.324978 1.50586,-0.533743 0.261109,-0.111814 0.460666,-0.205145 0.745812,-0.348808 0.180984,-0.09118 0.219075,-0.108975 0.205099,-0.09579 -0.0073,0.0069 -0.258876,0.134918 -0.385497,0.196198 -0.524324,0.253751 -0.994917,0.445236 -1.540024,0.626638 -0.551953,0.18368 -1.072473,0.318522 -1.65674,0.429184 -0.09513,0.01802 -0.10174,0.01911 -0.09879,0.01629 z"
       id="path6413"
       transform="translate(0,291.18)" />
    <path
       style="fill:#00aa00;fill-opacity:1;stroke-width:0.00390625"
       d="m 32.800781,23.996058 c -0.15618,-0.0031 -0.364098,-0.01141 -0.367187,-0.01464 -0.0011,-0.0011 0.02785,-9.14e-4 0.06427,4.62e-4 0.416432,0.01574 1.114412,-0.0017 1.476747,-0.03686 0.717141,-0.06962 1.462257,-0.223536 2.11657,-0.437199 0.04048,-0.01322 0.07461,-0.02302 0.07585,-0.02179 0.0012,0.0012 0.0015,0.0028 6.17e-4,0.0035 -8.95e-4,7e-4 -0.04645,0.01555 -0.101237,0.033 -1.057208,0.336767 -2.153539,0.495731 -3.265625,0.473503 z"
       id="path6415"
       transform="translate(0,291.18)" />
    <path
       style="fill:#00aa00;fill-opacity:1;stroke-width:0.00390625"
       d="m 30.521484,25.886719 c -1.212756,-0.0013 -1.504218,-0.0023 -0.892578,-0.0029 0.499512,-5.34e-4 1.331836,-0.0017 1.84961,-0.0026 0.517773,-8.78e-4 0.933935,-7.76e-4 0.924804,2.26e-4 -0.0091,0.001 -0.0166,0.0035 -0.0166,0.0055 0,0.0021 -0.01397,0.0033 -0.03223,0.0027 -0.01772,-5.34e-4 -0.842578,-0.0019 -1.833008,-0.0029 z"
       id="path6419"
       transform="translate(0,291.18)" />
    <path
       style="fill:#00aa00;fill-opacity:1;stroke-width:0.00390625"
       d="m 32.324219,23.976221 c -0.02256,-0.0017 -0.07793,-0.006 -0.123047,-0.0094 -0.247652,-0.01884 -0.540877,-0.05357 -0.794922,-0.09416 -1.524842,-0.243573 -2.95092,-0.826235 -4.208984,-1.719694 -0.128131,-0.091 -0.330079,-0.243678 -0.330079,-0.249554 0,-0.0045 0.0019,-0.0042 0.0094,0.0015 0.340694,0.259903 0.628506,0.457163 0.953503,0.653511 1.046474,0.632228 2.186737,1.061144 3.395457,1.277218 0.335435,0.05996 0.783536,0.114796 1.118215,0.136832 0.09023,0.0059 0.09654,0.0067 0.05664,0.0068 -0.01934,4.5e-5 -0.05361,-0.0013 -0.07617,-0.0031 z"
       id="path6421"
       transform="translate(0,291.18)" />
    <path
       style="fill:#00aa00;fill-opacity:1;stroke-width:0.00390625"
       d="m 33.194016,24.009209 c -0.0018,-0.0018 -0.06155,-0.0043 -0.132813,-0.0054 l -0.129562,-0.0021 0.152343,-9.5e-4 c 0.08379,-5.22e-4 0.197168,-0.0026 0.251953,-0.0046 0.202003,-0.0074 0.216853,-0.0077 0.175782,-0.0041 -0.032,0.0029 -0.131764,0.0094 -0.275391,0.01808 -0.02148,0.0013 -0.04053,8.52e-4 -0.04231,-9.91e-4 z"
       id="path6423"
       transform="translate(0,291.18)" />
    <path
       style="fill:#00aa00;fill-opacity:1;stroke-width:0.00390625"
       d="m 34.572266,23.880256 c 0.03223,-0.0052 0.108471,-0.01822 0.169432,-0.02887 0.12245,-0.02138 0.119116,-0.02094 0.115724,-0.01545 -0.0013,0.0021 7.66e-4,0.0041 0.0047,0.0044 0.01232,8.02e-4 -0.125344,0.02221 -0.260512,0.04051 -0.09072,0.01228 -0.106527,0.01198 -0.0293,-5.56e-4 z"
       id="path6425"
       transform="translate(0,291.18)" />
    <path
       style="fill:#00aa00;fill-opacity:1;stroke-width:0.00390625"
       d="m 27.892578,22.638867 c -0.0043,-0.0029 -0.04736,-0.02944 -0.0957,-0.05901 -0.736155,-0.450216 -1.405847,-0.988462 -2.019141,-1.622829 -0.373207,-0.38603 -0.659965,-0.726769 -0.931983,-1.107422 -0.05408,-0.07568 -0.23616,-0.346256 -0.259576,-0.385742 l -0.0087,-0.01465 0.01301,1.75e-4 c 0.01242,1.66e-4 0.0147,0.0028 0.05012,0.05755 0.164982,0.255071 0.414929,0.594025 0.632467,0.857689 0.276469,0.33509 0.535929,0.611989 0.875389,0.934226 0.04609,0.04375 0.180355,0.165535 0.248003,0.224948 0.43869,0.385286 0.931423,0.745912 1.421875,1.040655 0.04941,0.0297 0.09155,0.0555 0.09363,0.05734 0.0021,0.0019 -0.0017,0.0023 -0.0088,8.33e-4 -0.01473,-0.0029 -0.01579,3.93e-4 -0.0041,0.01286 0.0093,0.0099 0.0058,0.01168 -0.0065,0.0034 z"
       id="path6427"
       transform="translate(0,291.18)" />
    <path
       style="fill:#00aa00;fill-opacity:1;stroke-width:0.00390625"
       d="m 26.79489,21.851044 c -0.493892,-0.389319 -0.974965,-0.851379 -1.388336,-1.333466 -0.428815,-0.500099 -0.803583,-1.03502 -1.122973,-1.602866 -0.09835,-0.17486 -0.215817,-0.39784 -0.211733,-0.401925 0.0013,-0.0013 0.003,-0.0016 0.0038,-7.43e-4 8.02e-4,8.95e-4 0.02481,0.04645 0.05335,0.101237 0.366177,0.702905 0.801991,1.343304 1.323441,1.944707 0.260247,0.30015 0.593953,0.638266 0.891401,0.903181 0.163224,0.14537 0.35351,0.304282 0.512946,0.428371 0.0061,0.0048 0.01049,0.0105 0.0097,0.01278 -7.57e-4,0.0023 -0.033,-0.0208 -0.07166,-0.05127 z"
       id="path6429"
       transform="translate(0,291.18)" />
    <path
       style="fill:#00aa00;fill-opacity:1;stroke-width:0.00390625"
       d="m 24.551277,19.409121 c -0.180877,-0.290475 -0.347399,-0.591448 -0.525692,-0.950137 -0.265118,-0.533363 -0.455003,-0.979104 -0.59427,-1.395006 -0.02023,-0.06042 -0.03678,-0.110955 -0.03678,-0.112305 0,-0.0013 0.0095,-0.0025 0.02112,-0.0025 h 0.02112 l 0.01425,0.0459 c 0.227121,0.731468 0.5523,1.461413 0.945055,2.12141 0.06642,0.11162 0.155863,0.256105 0.199294,0.32195 l 0.0071,0.01074 -0.01315,-5.9e-5 c -0.01243,-5.6e-5 -0.0145,-0.0022 -0.03804,-0.04004 z"
       id="path6431"
       transform="translate(0,291.18)" />
    <path
       style="fill:#00aa00;fill-opacity:1;stroke-width:0.00390625"
       d="m 23.393296,16.946289 c -9.32e-4,-0.0016 -0.01323,-0.0416 -0.02733,-0.08887 -0.127523,-0.427568 -0.212306,-0.860619 -0.269964,-1.378906 -0.01903,-0.171028 -0.02089,-0.213053 -0.0043,-0.09766 0.07959,0.554562 0.185041,1.038355 0.333549,1.530274 l 0.0115,0.03809 h -0.02087 c -0.01148,0 -0.02163,-0.0013 -0.02256,-0.0029 z"
       id="path6433"
       transform="translate(0,291.18)" />
    <path
       style="fill:#00aa00;fill-opacity:1;stroke-width:0.00390625"
       d="m 24.049123,18.473633 c -0.519805,-1.039435 -0.860076,-2.198732 -0.986315,-3.360352 -0.01145,-0.105399 -0.02467,-0.297107 -0.03744,-0.542968 -0.0068,-0.131665 -0.0066,-0.121094 -0.0027,-0.121094 0.0017,0 0.0053,0.04351 0.008,0.09668 0.01779,0.358741 0.04468,0.651102 0.08487,0.922852 0.151641,1.025299 0.44305,1.973696 0.891187,2.900391 0.07465,0.154368 0.06928,0.142578 0.06491,0.142578 -0.0019,0 -0.01201,-0.01714 -0.02249,-0.03809 z"
       id="path6435"
       transform="translate(0,291.18)" />
    <path
       style="fill:#00aa00;fill-opacity:1;stroke-width:0.00390625"
       d="m 23.021957,14.449984 c -0.0028,-0.0045 -0.009,-0.137908 -0.0155,-0.332796 -0.0051,-0.15284 -0.0021,-0.486128 0.0048,-0.533204 l 0.0034,-0.02344 4.77e-4,0.02449 c 0.0014,0.06954 0.02484,0.355447 0.04164,0.50676 0.0031,0.02793 0.0054,0.05606 0.0052,0.0625 -6.67e-4,0.0171 -0.01688,-0.111279 -0.02664,-0.210938 -0.0046,-0.04726 -0.0093,-0.09031 -0.01046,-0.09565 -0.0019,-0.0092 -0.0023,-0.0093 -0.0063,-0.0022 -0.0044,0.0079 -0.0013,0.384983 0.0044,0.533352 0.0015,0.03975 0.0024,0.07282 0.002,0.0735 -4.18e-4,6.8e-4 -0.0018,-4.11e-4 -0.003,-0.0024 z"
       id="path6437"
       transform="translate(0,291.18)" />
    <path
       style="fill:#00aa00;fill-opacity:1;stroke-width:0.00390625"
       d="m 22.993081,13.658203 c -0.01093,-0.434928 -0.0134,-0.64114 -0.01136,-0.947265 0.0012,-0.175098 0.004,-0.355274 0.0063,-0.400391 0.0122,-0.23931 0.0285,-0.414647 0.05947,-0.639649 l 0.0047,-0.03418 h 0.01913 c 0.01879,0 0.01909,1.9e-4 0.01696,0.01074 -0.0029,0.01436 -0.01995,0.15377 -0.0295,0.241211 -0.02734,0.250388 -0.04546,0.504054 -0.05483,0.767578 -0.0052,0.146017 -0.005,0.551879 3e-4,0.685547 0.005,0.126941 0.0048,0.187059 -0.0015,0.371094 l -0.0048,0.140625 z"
       id="path6439"
       transform="translate(0,291.18)" />
    <path
       style="fill:#00aa00;fill-opacity:1;stroke-width:0.00390625"
       d="m 23.054687,11.628542 c 0,-0.01253 0.03427,-0.219798 0.04531,-0.27405 0.0019,-0.0095 0.0039,-0.01074 0.0175,-0.01074 0.0084,0 0.01531,9.08e-4 0.01531,0.002 0,0.0011 -0.0036,0.0244 -0.008,0.05176 -0.0086,0.0535 -0.03492,0.23143 -0.03495,0.236263 -10e-6,0.0016 -0.0079,0.0029 -0.0176,0.0029 -0.01524,0 -0.01758,-0.0011 -0.01758,-0.0082 z"
       id="path6441"
       transform="translate(0,291.18)" />
    <path
       style="fill:#00aa00;fill-opacity:1;stroke-width:0.00390625"
       d="M 4.4902344,22.891847 C 4.189012,22.626767 4.0644952,22.510381 3.8122136,22.258099 3.5704506,22.016336 3.4268044,21.863157 3.2203448,21.626953 3.0545992,21.437329 2.9373571,21.295292 2.9444338,21.292692 c 0.00434,-0.0016 0.025531,0.02116 0.074568,0.08008 0.2721039,0.326958 0.5048931,0.581644 0.8107726,0.887037 0.2214117,0.22106 0.400625,0.388807 0.6155385,0.576156 0.1244596,0.108497 0.1131991,0.09768 0.101423,0.09738 -0.00646,-1.67e-4 -0.025037,-0.01381 -0.056501,-0.0415 z"
       id="path2177"
       transform="translate(0,291.18)" />
    <path
       style="fill:#00aa00;fill-opacity:1;stroke-width:0.00390625"
       d=""
       id="path2179"
       transform="translate(0,291.18)" />
    <path
       style="fill:#00aa00;fill-opacity:1;stroke-width:0.00390625"
       d=""
       id="path2181"
       transform="translate(0,291.18)" />
    <path
       style="fill:#00aa00;fill-opacity:1;stroke-width:0.00390625"
       d=""
       id="path2185"
       transform="translate(0,291.18)" />
    <path
       style="fill:#00aa00;fill-opacity:1;stroke-width:0.00390625"
       d="M 7.9121094,24.941914 C 7.3150051,24.684854 6.792637,24.415435 6.2539062,24.086672 6.0954612,23.98998 5.9283158,23.882882 5.9312605,23.879937 c 0.00104,-0.001 0.033185,0.01827 0.071444,0.04289 0.6054013,0.389673 1.2499611,0.731378 1.9191707,1.017424 0.052637,0.0225 0.096436,0.04163 0.097331,0.04252 0.00682,0.0067 -0.022868,-0.0046 -0.1070963,-0.04085 z"
       id="path2187"
       transform="translate(0,291.18)" />
    <path
       style="fill:#00aa00;fill-opacity:1;stroke-width:0.00390625"
       d="m 5.1134223,23.304314 c -0.2211169,-0.169721 -0.4648792,-0.36845 -0.6048929,-0.493145 -0.02861,-0.02548 -0.051182,-0.04716 -0.05016,-0.04818 0.00102,-0.001 0.030581,0.02313 0.065689,0.05368 0.1594423,0.138726 0.4001529,0.335202 0.5735979,0.46819 0.104949,0.08047 0.1164214,0.08972 0.1113282,0.08977 -0.00215,1.9e-5 -0.045151,-0.03162 -0.095562,-0.07031 z"
       id="path2189"
       transform="translate(0,291.18)" />
    <path
       style="fill:#00aa00;fill-opacity:1;stroke-width:0.00390625"
       d=""
       id="path2191"
       transform="translate(0,291.18)" />
    <path
       style="fill:#00aa00;fill-opacity:1;stroke-width:0.00390625"
       d=""
       id="path2193"
       transform="translate(0,291.18)" />
    <path
       style="fill:#00aa00;fill-opacity:1;stroke-width:0.00390625"
       d="m 5.596445,23.657622 c -0.023225,-0.01625 -0.041352,-0.03042 -0.040282,-0.03149 0.00194,-0.0019 0.088368,0.05641 0.088368,0.05966 0,0.0045 -0.00895,-7.78e-4 -0.048086,-0.02817 z"
       id="path2195"
       transform="translate(0,291.18)" />
    <path
       style="fill:#00aa00;fill-opacity:1;stroke-width:0.00390625"
       d="m 5.6667004,23.706474 c -0.012514,-0.0087 -0.021878,-0.01666 -0.020809,-0.01773 0.00199,-0.002 0.049421,0.02883 0.049421,0.03211 0,0.0041 -0.00707,5.73e-4 -0.028612,-0.01438 z"
       id="path2197"
       transform="translate(0,291.18)" />
    <path
       style="fill:#00aa00;fill-opacity:1;stroke-width:0.00390625"
       d="M 5.4121094,23.526926 C 5.2959188,23.442142 5.2419411,23.401288 5.2437388,23.39949 c 0.00109,-0.0011 0.031506,0.01985 0.067596,0.04652 0.03609,0.02667 0.084515,0.06219 0.1076102,0.07893 0.023096,0.01674 0.041992,0.03116 0.041992,0.03205 0,0.0045 -0.00946,-0.0013 -0.048828,-0.03006 z"
       id="path2201"
       transform="translate(0,291.18)" />
    <path
       style="fill:#00aa00;fill-opacity:1;stroke-width:0.00390625"
       d=""
       id="path2203"
       transform="translate(0,291.18)" />
    <path
       style="fill:#00aa00;fill-opacity:1;stroke-width:0.00390625"
       d="m 5.815041,23.806366 c -0.053374,-0.0356 -0.09616,-0.06561 -0.095081,-0.06669 0.00168,-0.0017 0.1855069,0.118447 0.19586,0.127996 0.00234,0.0022 0.00234,0.0034 -1.23e-5,0.0034 -0.00205,0 -0.047393,-0.02913 -0.100767,-0.06473 z"
       id="path2205"
       transform="translate(0,291.18)" />
    <path
       style="fill:#00aa00;fill-opacity:1;stroke-width:0.00390625"
       d=""
       id="path2207"
       transform="translate(0,291.18)" />
    <path
       style="fill:#00aa00;fill-opacity:1;stroke-width:0.00390625"
       d=""
       id="path2209"
       transform="translate(0,291.18)" />
    <path
       style="fill:#00aa00;fill-opacity:1;stroke-width:0.00390625"
       d="m 5.5048828,23.593285 c -0.02417,-0.01729 -0.043945,-0.03301 -0.043945,-0.03493 0,-0.0019 0.021094,0.01158 0.046875,0.03001 0.025781,0.01843 0.046875,0.03421 0.046875,0.03507 0,0.0044 -0.00961,-0.0014 -0.049805,-0.03015 z"
       id="path2211"
       transform="translate(0,291.18)" />
    <path
       style="fill:#00aa00;fill-opacity:1;stroke-width:0.00390625"
       d=""
       id="path2215"
       transform="translate(0,291.18)" />
    <path
       style="fill:#00aa00;fill-opacity:1;stroke-width:0.00390625"
       d="m 4.3964844,22.710937 c -0.00389,-0.0043 -0.00531,-0.0078 -0.00316,-0.0078 0.00215,0 0.00709,0.0035 0.010976,0.0078 0.00389,0.0043 0.00531,0.0078 0.00316,0.0078 -0.00215,0 -0.00709,-0.0035 -0.010976,-0.0078 z"
       id="path2217"
       transform="translate(0,291.18)" />
    <path
       style="fill:#00aa00;fill-opacity:1;stroke-width:0.00390625"
       d=""
       id="path2221"
       transform="translate(0,291.18)" />
    <path
       style="fill:#00aa00;fill-opacity:1;stroke-width:0.00390625"
       d=""
       id="path2223"
       transform="translate(0,291.18)" />
    <path
       style="fill:#00aa00;fill-opacity:1;stroke-width:0.00390625"
       d=""
       id="path2225"
       transform="translate(0,291.18)" />
    <path
       style="fill:#00aa00;fill-opacity:1;stroke-width:0.00390625"
       d=""
       id="path2227"
       transform="translate(0,291.18)" />
    <path
       style="fill:#00aa00;fill-opacity:1;stroke-width:0.00390625"
       d="M 3.3017287,21.618316 C 3.1787365,21.483196 3.0594979,21.342426 2.9119899,21.158203 2.8006832,21.019192 2.7917904,21.007689 2.7939554,21.005524 c 0.00107,-0.0011 0.025449,0.02758 0.054185,0.06365 0.1570698,0.197183 0.3074487,0.375919 0.4637505,0.551201 0.035114,0.03938 0.063024,0.07242 0.062022,0.07342 -10e-4,10e-4 -0.033485,-0.03296 -0.072184,-0.07548 z"
       id="path2229"
       transform="translate(0,291.18)" />
    <path
       style="fill:#00aa00;fill-opacity:1;stroke-width:0.00390625"
       d=""
       id="path2231"
       transform="translate(0,291.18)" />
    <path
       style="fill:#00aa00;fill-opacity:1;stroke-width:0.00390625"
       d="m 2.4986979,20.61849 c -0.00143,-0.0014 -0.0026,-0.0044 -0.0026,-0.0066 0,-0.0024 0.00182,-0.0022 0.00462,5.86e-4 0.00254,0.0025 0.00371,0.0055 0.0026,0.0066 -0.00111,0.0011 -0.00319,8.46e-4 -0.00462,-5.86e-4 z"
       id="path2237"
       transform="translate(0,291.18)" />
    <path
       style="fill:#00aa00;fill-opacity:1;stroke-width:0.00390625"
       d=""
       id="path2239"
       transform="translate(0,291.18)" />
    <path
       style="fill:#00aa00;fill-opacity:1;stroke-width:0.00390625"
       d=""
       id="path2241"
       transform="translate(0,291.18)" />
    <path
       style="fill:#00aa00;fill-opacity:1;stroke-width:0.00390625"
       d="m 2.7636089,20.970766 c -0.014444,-0.0185 -0.025384,-0.03451 -0.02431,-0.03559 0.00107,-0.0011 0.013771,0.01318 0.028216,0.03168 0.014445,0.0185 0.025384,0.03451 0.02431,0.03559 -0.00107,0.0011 -0.013771,-0.01318 -0.028216,-0.03168 z"
       id="path2243"
       transform="translate(0,291.18)" />
    <path
       style="fill:#00aa00;fill-opacity:1;stroke-width:0.00390625"
       d=""
       id="path2245"
       transform="translate(0,291.18)" />
    <path
       style="fill:#00aa00;fill-opacity:1;stroke-width:0.00390625"
       d=""
       id="path2247"
       transform="translate(0,291.18)" />
    <path
       style="fill:#00aa00;fill-opacity:1;stroke-width:0.00390625"
       d=""
       id="path2249"
       transform="translate(0,291.18)" />
    <path
       style="fill:#00aa00;fill-opacity:1;stroke-width:0.00390625"
       d="m 41.283796,19.668873 c 0.131238,-0.196577 0.201033,-0.305665 0.292988,-0.457936 0.735992,-1.21874 1.208083,-2.588087 1.387776,-4.02539 0.02425,-0.19392 0.0536,-0.488567 0.06772,-0.679688 l 0.0049,-0.06641 1.225577,-9.83e-4 1.225577,-9.82e-4 -0.001,1.004889 -10e-4,1.004889 -0.03055,0.101562 c -0.139924,0.46512 -0.245668,0.775358 -0.391444,1.148438 -0.224929,0.575656 -0.471179,1.099391 -0.771526,1.640915 -0.04401,0.07934 -0.0922,0.163485 -0.172654,0.301467 l -0.02335,0.04004 h -1.41012 -1.410113 z"
       id="path2253"
       transform="translate(0,291.18)" />
    <path
       style="fill:#00aa00;fill-opacity:1;stroke-width:0.00390625"
       d="m 42.445469,17.314598 c -8.6e-5,-0.0021 0.02085,-0.06711 0.04653,-0.144532 0.07512,-0.226484 0.139608,-0.445583 0.195509,-0.664207 0.01319,-0.05156 0.02567,-0.100341 0.02776,-0.108398 0.0031,-0.01194 0.0056,-0.01465 0.0134,-0.01465 0.0053,0 0.0096,0.0015 0.0096,0.0033 0,0.0052 -0.03745,0.150645 -0.06304,0.24474 -0.05222,0.192031 -0.09151,0.321788 -0.162638,0.537025 -0.03888,0.117654 -0.05014,0.147779 -0.05182,0.138672 l -0.0022,-0.01163 -0.0065,0.01172 c -0.0036,0.0064 -0.0066,0.01003 -0.0067,0.008 z"
       id="path2255"
       transform="translate(0,291.18)" />
    <path
       style="fill:#00aa00;fill-opacity:1;stroke-width:0.00390625"
       d=""
       id="path2257"
       transform="translate(0,291.18)" />
    <path
       style="fill:#00aa00;fill-opacity:1;stroke-width:0.00390625"
       d="m 41.006604,19.997298 c -0.0011,-0.0018 0.0085,-0.01735 0.02136,-0.03449 0.08501,-0.113183 0.221538,-0.30943 0.326044,-0.468668 0.600156,-0.914476 1.068497,-1.979948 1.337575,-3.042969 0.0092,-0.03652 0.01738,-0.06714 0.01808,-0.06803 0.0063,-0.0081 8.35e-4,0.01816 -0.02443,0.117072 -0.303981,1.190001 -0.826356,2.313503 -1.540966,3.314243 -0.09277,0.129918 -0.135389,0.186522 -0.137661,0.182845 z"
       id="path2259"
       transform="translate(0,291.18)" />
    <path
       style="fill:#00aa00;fill-opacity:1;stroke-width:0.00390625"
       d="m 42.83025,11.135742 c -8.44e-4,-0.0027 -0.0088,-0.04268 -0.01775,-0.08887 -0.0089,-0.04619 -0.02487,-0.124244 -0.03545,-0.173451 -0.01058,-0.04921 -0.01924,-0.09095 -0.01924,-0.09277 0,-0.0018 0.005,-0.0033 0.01101,-0.0033 h 0.01101 l 0.0144,0.06348 c 0.01511,0.06658 0.06124,0.289591 0.06124,0.296052 0,0.0056 -0.02343,0.0045 -0.02522,-0.0011 z"
       id="path2261"
       transform="translate(0,291.18)" />
    <path
       style="fill:#00aa00;fill-opacity:1;stroke-width:0.00390625"
       d="m 25.908203,5.9226398 c 0.240735,-0.239512 0.404291,-0.3929644 0.615234,-0.577229 0.294095,-0.2568984 0.605547,-0.4998745 0.897461,-0.7001447 l 0.05176,-0.035509 -6.9e-5,0.02227 -6.9e-5,0.02227 -0.04179,0.027344 c -0.107573,0.070381 -0.304672,0.2099569 -0.440491,0.3119339 -0.405357,0.3043555 -0.807401,0.657155 -1.14834,1.0076847 -0.0648,0.066626 -0.100214,0.1002785 -0.105468,0.1002294 -0.0055,-5.12e-5 0.04714,-0.054845 0.171777,-0.1788488 z"
       id="path2263"
       transform="translate(0,291.18)" />
    <path
       style="fill:#00aa00;fill-opacity:1;stroke-width:0.00390625"
       d="M 27.175781,0.0234375 V 0 H 27.525391 27.875 V 0.0234375 0.046875 h -0.349609 -0.34961 z"
       id="path2265"
       transform="translate(0,291.18)" />
    <path
       style="fill:#00aa00;fill-opacity:1;stroke-width:0.00390625"
       d=""
       id="path2267"
       transform="translate(0,291.18)" />
    <path
       style="fill:#00aa00;fill-opacity:1;stroke-width:0.00390625"
       d="m 2.4127604,20.497396 c -0.00143,-0.0014 -0.0026,-0.0044 -0.0026,-0.0066 0,-0.0024 0.00182,-0.0022 0.00462,5.86e-4 0.00254,0.0025 0.00371,0.0055 0.0026,0.0066 -0.00111,0.0011 -0.00319,8.46e-4 -0.00462,-5.86e-4 z"
       id="path2271"
       transform="translate(0,291.18)" />
    <path
       style="fill:#00aa00;fill-opacity:1;stroke-width:0.00390625"
       d=""
       id="path2273"
       transform="translate(0,291.18)" />
    <path
       style="fill:#00aa00;fill-opacity:1;stroke-width:0.00390625"
       d="m 2.3307292,20.380208 c -0.00143,-0.0014 -0.0026,-0.0044 -0.0026,-0.0066 0,-0.0024 0.00182,-0.0022 0.00462,5.86e-4 0.00254,0.0025 0.00371,0.0055 0.0026,0.0066 -0.00111,0.0011 -0.00319,8.47e-4 -0.00462,-5.86e-4 z"
       id="path2279"
       transform="translate(0,291.18)" />
    <path
       style="fill:#00aa00;fill-opacity:1;stroke-width:0.00390625"
       d=""
       id="path2281"
       transform="translate(0,291.18)" />
    <path
       style="fill:#00aa00;fill-opacity:1;stroke-width:0.00390625"
       d=""
       id="path2283"
       transform="translate(0,291.18)" />
    <path
       style="fill:#00aa00;fill-opacity:1;stroke-width:0.00390625"
       d=""
       id="path2285"
       transform="translate(0,291.18)" />
    <path
       style="fill:#00aa00;fill-opacity:1;stroke-width:0.00390625"
       d="m 12.696289,25.997202 c 0.0059,-8.95e-4 0.01558,-8.95e-4 0.02148,0 0.0059,8.95e-4 0.0011,0.0016 -0.01074,0.0016 -0.01182,0 -0.01665,-7.32e-4 -0.01074,-0.0016 z"
       id="path2293"
       transform="translate(0,291.18)" />
    <path
       style="fill:#00aa00;fill-opacity:1;stroke-width:0.00390625"
       d="m 12.711914,25.997073 -0.09863,-0.0011 v -0.0087 l -1e-6,-0.0087 0.317383,9.05e-4 c 0.174561,4.97e-4 1.231007,0.002 2.347657,0.0034 1.584803,0.002 2.030274,0.0035 2.030274,0.0072 0,0.0037 -0.100231,0.0053 -0.442383,0.0073 -0.412105,0.0024 -3.935708,0.0021 -4.154297,-3.27e-4 z"
       id="path2295"
       transform="translate(0,291.18)" />
    <path
       style="fill:#00aa00;fill-opacity:1;stroke-width:0.00390625"
       d=""
       id="path2297"
       transform="translate(0,291.18)" />
  </g>
</svg>
